<svg width="151" height="35" viewBox="0 0 151 35" fill="none" xmlns="http://www.w3.org/2000/svg">
<g clip-path="url(#clip0_1567_3435)">
<path d="M42.8857 10.678H46.6823V26.1017H42.8857V10.678ZM48.2247 20.2881C48.2247 16.4915 50.5976 14.2373 54.1569 14.2373C57.7162 14.2373 60.0891 16.4915 60.0891 20.2881C60.0891 24.0847 57.8348 26.4576 54.1569 26.4576C50.4789 26.4576 48.2247 24.2034 48.2247 20.2881ZM56.2925 20.2881C56.2925 18.1525 55.462 16.9661 54.1569 16.9661C52.8518 16.9661 52.0213 18.1525 52.0213 20.2881C52.0213 22.4237 52.8518 23.6102 54.1569 23.6102C55.462 23.6102 56.2925 22.5424 56.2925 20.2881ZM61.6315 26.9322H65.3094C65.6654 27.7627 66.4959 28.2373 67.3264 28.1186C68.7501 28.1186 69.5806 27.2881 69.5806 26.2203V24.0847C68.9874 25.3898 67.5637 26.2203 66.0213 26.2203C63.2925 26.2203 61.3942 24.0847 61.3942 20.4068C61.3942 16.7288 63.1738 14.4746 66.1399 14.4746C67.6823 14.3559 69.106 15.3051 69.6992 16.7288H69.5806V14.5932H73.3772V26.1017C73.3772 28.9492 70.8857 30.6102 67.3264 30.6102C63.8857 30.6102 61.8687 29.0678 61.6315 26.9322ZM69.5806 20.2881C69.5806 18.3898 68.7501 17.2034 67.3264 17.2034C65.9026 17.2034 65.1908 18.3898 65.1908 20.2881C65.1908 22.1864 66.0213 23.2542 67.3264 23.2542C68.6315 23.2542 69.5806 22.3051 69.5806 20.2881ZM74.8009 20.2881C74.8009 16.4915 77.1738 14.2373 80.7332 14.2373C84.2925 14.2373 86.6654 16.4915 86.6654 20.2881C86.6654 24.0847 84.4111 26.4576 80.7332 26.4576C77.0552 26.4576 74.8009 24.2034 74.8009 20.2881ZM82.9874 20.2881C82.9874 18.1525 82.1569 16.9661 80.8518 16.9661C79.5467 16.9661 78.7162 18.1525 78.7162 20.2881C78.7162 22.4237 79.5467 23.6102 80.8518 23.6102C82.1569 23.6102 82.9874 22.5424 82.9874 20.2881ZM88.2077 11.7458C88.2077 10.678 89.0382 9.72881 90.106 9.72881C91.1738 9.72881 92.123 10.5593 92.123 11.6271C92.123 12.6949 91.2925 13.6441 90.2247 13.6441H90.106C89.1569 13.5254 88.3264 12.8136 88.2077 11.7458C88.3264 11.7458 88.3264 11.7458 88.2077 11.7458ZM88.2077 14.4746H92.0043V26.2203H88.2077V14.4746ZM106.004 20.2881C106.004 24.0847 104.343 26.339 101.377 26.339C99.8349 26.4576 98.4111 25.5085 97.8179 24.2034H97.6992V30.0169H93.9026V14.5932H97.6992V16.6102H97.8179C98.4111 15.1864 99.8349 14.2373 101.377 14.3559C104.343 14.3559 106.004 16.4915 106.004 20.2881ZM102.089 20.2881C102.089 18.3898 101.259 17.2034 99.8348 17.2034C98.4111 17.2034 97.6992 18.3898 97.6992 20.2881C97.6992 22.1864 98.5298 23.3729 99.8348 23.3729C101.14 23.3729 102.208 22.3051 102.089 20.2881ZM112.53 14.2373C115.733 14.2373 117.75 15.7797 117.75 18.1525H114.309C114.309 17.322 113.598 16.8475 112.53 16.8475C111.462 16.8475 110.987 17.2034 110.987 17.9153C110.987 18.6271 111.462 18.7458 112.292 18.8644L114.784 19.339C117.157 19.8136 118.106 20.7627 118.106 22.5424C118.106 24.9153 115.97 26.5763 112.648 26.5763C109.326 26.5763 107.191 24.9153 106.953 22.5424H110.631C110.75 23.3729 111.462 23.9661 112.53 23.9661C113.598 23.9661 114.191 23.6102 114.191 23.0169C114.191 22.4237 113.835 22.3051 112.886 22.0678L110.631 21.5932C108.377 21.1186 107.191 19.9322 107.191 18.1525C107.309 15.661 109.326 14.2373 112.53 14.2373ZM130.801 26.2203H127.123V23.9661H127.004C126.53 25.5085 125.106 26.4576 123.564 26.339C121.309 26.4576 119.411 24.678 119.411 22.4237V14.4746H123.208V21.1186C123.208 22.5424 123.92 23.2542 125.106 23.2542C125.937 23.2542 126.767 22.661 127.004 21.8305C127.123 21.5932 127.123 21.2373 127.004 21V14.3559H130.801V26.2203ZM132.581 14.4746H136.259V16.7288H136.377C136.852 15.1864 138.157 14.2373 139.699 14.2373C141.242 14.1186 142.665 15.1864 142.903 16.7288H143.021C143.496 15.1864 144.92 14.1186 146.581 14.2373C148.598 14.1186 150.377 15.7797 150.377 17.7966V26.1017H146.581V19.1017C146.581 17.9153 145.987 17.2034 144.92 17.2034C143.97 17.2034 143.259 17.9153 143.259 18.8644V25.9831H139.581V18.9831C139.581 17.7966 138.987 17.2034 137.92 17.2034C137.208 17.2034 136.496 17.678 136.259 18.3898C136.14 18.6271 136.14 18.8644 136.14 19.1017V25.9831H132.343L132.581 14.4746ZM35.2925 11.7458C35.2925 5.22034 30.0721 0 23.5467 0C20.2247 0 17.1399 1.42373 14.8857 3.79661H0.173828V35H31.4959V20.4068C33.8687 18.2712 35.2925 15.0678 35.2925 11.7458ZM29.3603 11.7458C29.3603 14.9492 26.8687 17.4407 23.6654 17.4407C20.462 17.4407 17.9704 14.9492 17.9704 11.7458C17.9704 8.54237 20.462 6.05085 23.6654 6.05085C25.2077 6.05085 26.6315 6.64407 27.6993 7.71186C28.767 8.77966 29.3603 10.2034 29.3603 11.7458ZM25.445 29.0678H6.22468V9.84746H12.0382C11.9196 10.4407 11.9196 11.0339 11.9196 11.7458C11.9196 18.2712 17.1399 23.4915 23.6654 23.4915C24.2586 23.4915 24.8518 23.4915 25.445 23.3729V29.0678Z" fill="#F2F2F2"/>
</g>
<defs>
<clipPath id="clip0_1567_3435">
<rect width="150.322" height="35" fill="white" transform="translate(0.173828)"/>
</clipPath>
</defs>
</svg>
