<svg width="75" height="75" viewBox="0 0 75 75" fill="none" xmlns="http://www.w3.org/2000/svg">
<g clip-path="url(#clip0_924_532)">
<g clip-path="url(#clip1_924_532)">
<mask id="mask0_924_532" style="mask-type:luminance" maskUnits="userSpaceOnUse" x="16" y="16" width="43" height="43">
<path d="M37.4976 16.4064L16.4043 37.5002L37.4976 58.5939L58.5909 37.5002L37.4976 16.4064Z" fill="white"/>
</mask>
<g mask="url(#mask0_924_532)">
<path d="M31.9932 28.1017L31.1384 29.7599C32.693 30.5598 35.4196 31.5846 38.536 31.7374C39.7543 31.7972 41.0376 31.6516 42.3198 31.3602L26.9517 46.7286L28.27 48.047L43.6381 32.6786C43.3467 33.9607 43.2011 35.2441 43.2609 36.4624C43.4137 39.5789 44.4385 42.3055 45.2384 43.8602L46.8966 43.0053C46.2113 41.6734 45.2575 39.1261 45.1226 36.3722C44.9875 33.6185 45.6194 30.6973 48.045 28.2716L46.7267 26.9532C44.301 29.3789 41.3798 30.0108 38.6261 29.8757C35.8724 29.7408 33.3251 28.787 31.9932 28.1017Z" fill="#F2F2F2"/>
</g>
</g>
</g>
<rect y="-1.17187" width="51.3752" height="51.3752" rx="25.6876" transform="matrix(-0.7071 -0.707114 0.7071 -0.707114 38.3277 72.9995)" stroke="#8C7158" stroke-width="1.65726"/>
<defs>
<clipPath id="clip0_924_532">
<rect width="53.0325" height="53.0325" rx="26.5162" transform="matrix(-0.7071 -0.707114 0.7071 -0.707114 37.499 75)" fill="white"/>
</clipPath>
<clipPath id="clip1_924_532">
<rect width="29.8308" height="29.8308" fill="white" transform="matrix(-0.7071 -0.707114 0.7071 -0.707114 37.499 58.5938)"/>
</clipPath>
</defs>
</svg>
