<svg width="60" height="60" viewBox="0 0 60 60" fill="none" xmlns="http://www.w3.org/2000/svg">
<g clip-path="url(#clip0_1535_946)">
<g clip-path="url(#clip1_1535_946)">
<mask id="mask0_1535_946" style="mask-type:luminance" maskUnits="userSpaceOnUse" x="13" y="13" width="34" height="34">
<path d="M29.9995 13.1265L13.1245 30.002L29.9995 46.8774L46.8745 30.002L29.9995 13.1265Z" fill="white"/>
</mask>
<g mask="url(#mask0_1535_946)">
<path d="M25.5953 22.4821L24.9114 23.8088C26.1552 24.4487 28.3364 25.2685 30.8296 25.3908C31.8043 25.4386 32.831 25.3221 33.8567 25.089L21.562 37.3841L22.6167 38.4388L34.9114 26.1437C34.6783 27.1695 34.5618 28.1962 34.6096 29.1709C34.7319 31.6641 35.5518 33.8455 36.1916 35.0892L37.5182 34.4054C36.97 33.3398 36.207 31.3019 36.099 29.0988C35.9909 26.8957 36.4964 24.5586 38.437 22.6181L37.3823 21.5634C35.4418 23.5039 33.1048 24.0094 30.9017 23.9014C28.6987 23.7934 26.6609 23.0304 25.5953 22.4821Z" fill="#F2F2F2"/>
</g>
</g>
</g>
<rect y="-0.848559" width="41.2269" height="41.2269" rx="20.6135" transform="matrix(-0.707098 -0.707116 0.707098 -0.707116 30.6 58.5514)" stroke="#F2F2F2" stroke-width="1.20003"/>
<defs>
<clipPath id="clip0_1535_946">
<rect width="42.427" height="42.427" rx="21.2135" transform="matrix(-0.707098 -0.707116 0.707098 -0.707116 30 60)" fill="white"/>
</clipPath>
<clipPath id="clip1_1535_946">
<rect width="23.8652" height="23.8652" fill="white" transform="matrix(-0.707098 -0.707116 0.707098 -0.707116 30 46.875)"/>
</clipPath>
</defs>
</svg>
