<svg width="55" height="62" viewBox="0 0 55 62" fill="none" xmlns="http://www.w3.org/2000/svg">
<rect x="27.7241" width="38.5" height="38.5" transform="rotate(45 27.7241 0)" fill="#F2F2F2" fill-opacity="0.1"/>
<rect x="27.7241" y="7.27148" width="38.5" height="38.5" transform="rotate(45 27.7241 7.27148)" fill="#F2F2F2" fill-opacity="0.2"/>
<path d="M39.3736 32.6811C38.985 32.2976 38.4627 32.0801 37.9168 32.0743C37.3709 32.0686 36.8441 32.2752 36.4476 32.6504C36.0578 33.0047 35.5595 33.4442 35.0079 33.928V28.9177L35.9983 29.5993C36.0891 29.6618 36.2011 29.6857 36.3096 29.6657C36.418 29.6457 36.5141 29.5834 36.5767 29.4926L37.5201 28.121C37.5825 28.0302 37.6063 27.9182 37.5862 27.8099C37.5661 27.7015 37.5038 27.6055 37.413 27.543L35.0079 25.8881V22.9064C35.0079 22.7961 34.9641 22.6904 34.8862 22.6125C34.8083 22.5345 34.7025 22.4907 34.5923 22.4907H32.0986C31.9883 22.4907 31.8826 22.5345 31.8047 22.6125C31.7267 22.6904 31.6829 22.7961 31.6829 22.9064V23.5997L27.7625 20.9015C27.6932 20.8537 27.6109 20.8281 27.5267 20.8281C27.4425 20.8281 27.3602 20.8537 27.2909 20.9015L17.64 27.5432C17.5494 27.6058 17.4872 27.7018 17.4672 27.8101C17.4472 27.9185 17.471 28.0304 17.5333 28.1212L18.4768 29.4928C18.5393 29.5836 18.6354 29.6459 18.7439 29.6659C18.8523 29.6859 18.9643 29.662 19.0552 29.5995L20.0454 28.9177V35.3086L18.6522 36.5862L18.1386 36.0259C18.1017 35.9857 18.0573 35.9531 18.0078 35.93C17.9583 35.907 17.9048 35.8939 17.8502 35.8915C17.7957 35.8891 17.7412 35.8975 17.6899 35.9162C17.6386 35.9349 17.5915 35.9635 17.5513 36.0004L15.2491 38.1112C15.2089 38.148 15.1763 38.1925 15.1532 38.242C15.1301 38.2914 15.117 38.345 15.1147 38.3995C15.1123 38.4541 15.1207 38.5085 15.1393 38.5598C15.158 38.6111 15.1866 38.6582 15.2235 38.6985L21.5784 45.6311C21.6153 45.6714 21.6598 45.7039 21.7093 45.727C21.7589 45.75 21.8124 45.7631 21.867 45.7654L21.8849 45.7659C21.9889 45.7659 22.0891 45.727 22.1657 45.6567L24.4687 43.5453C24.5499 43.4708 24.5983 43.3671 24.603 43.2569C24.6078 43.1468 24.5687 43.0393 24.4943 42.958L23.9806 42.3978L24.4135 42.0007L31.6748 42.3157C32.3964 42.3448 33.1147 42.2036 33.7717 41.9037C34.4286 41.6037 35.0057 41.1534 35.4564 40.589C36.5263 39.2358 38.3163 36.971 39.3906 35.5815C39.7145 35.1728 39.9052 34.6746 39.937 34.1542C39.9508 33.8829 39.9078 33.6118 39.8108 33.3581C39.7138 33.1045 39.5649 32.8739 39.3736 32.6811ZM32.5142 23.322H34.1767V25.3159L32.5142 24.1718V23.322ZM18.926 28.6788L18.454 27.9923L27.5267 21.7484L36.5994 27.9923L36.1274 28.6788L27.7625 22.9214C27.6931 22.8737 27.6109 22.8481 27.5267 22.8481C27.4425 22.8481 27.3603 22.8737 27.2909 22.9214L18.926 28.6788ZM26.2798 30.8032H22.5392C22.429 30.8032 22.3232 30.847 22.2453 30.925C22.1673 31.0029 22.1236 31.1086 22.1236 31.2189V34.4205C21.6915 34.4234 21.2655 34.5227 20.8767 34.7111V28.3456L27.5267 23.7682L34.1767 28.3456V34.6503C33.7515 35.0174 33.3161 35.3926 32.8762 35.7707C32.6974 35.4869 32.4522 35.2509 32.1619 35.0831C31.8715 34.9152 31.5447 34.8205 31.2096 34.8071L26.6954 34.6113V31.2189C26.6954 31.1086 26.6516 31.0029 26.5737 30.925C26.4958 30.847 26.39 30.8032 26.2798 30.8032ZM25.8642 31.6345V34.5752L22.9548 34.449V31.6345H25.8642ZM21.9105 44.7628L16.1173 38.4432L17.8066 36.8941L23.6004 43.2131L21.9105 44.7628ZM38.7336 35.0723C37.6616 36.4588 35.8729 38.7215 34.805 40.0726C34.4368 40.535 33.9647 40.904 33.4269 41.1495C32.8892 41.3949 32.3011 41.5099 31.7105 41.4851L24.2776 41.1626C24.1678 41.1593 24.0609 41.1982 23.9789 41.2714L23.4189 41.7848L19.2139 37.1987L20.7443 35.7954C20.9455 35.6097 21.1815 35.4659 21.4387 35.3723C21.6958 35.2787 21.9691 35.2372 22.2425 35.2501L31.174 35.6375C31.4385 35.6479 31.6927 35.7428 31.8993 35.9083C32.106 36.0738 32.2542 36.3011 32.3222 36.557V36.5574C32.3827 36.7775 32.3814 37.0101 32.3184 37.2295C32.2554 37.4489 32.1331 37.6466 31.965 37.8011C31.8442 37.9126 31.7026 37.999 31.5481 38.0553C31.3937 38.1116 31.2297 38.1366 31.0655 38.129L26.4981 37.9307C26.3886 37.9281 26.2823 37.968 26.2015 38.042C26.1208 38.1161 26.0719 38.2186 26.0651 38.3279C26.0627 38.3825 26.0711 38.437 26.0898 38.4883C26.1085 38.5396 26.1371 38.5867 26.1741 38.627C26.211 38.6672 26.2555 38.6998 26.305 38.7228C26.3545 38.7458 26.4081 38.7589 26.4627 38.7612L31.0301 38.9595C31.0601 38.9609 31.0905 38.9615 31.1206 38.9615C31.6563 38.9618 32.1714 38.755 32.5583 38.3844C32.9451 38.0138 33.1737 37.5079 33.1963 36.9727C33.2003 36.851 33.1936 36.7293 33.1761 36.6088C33.8707 36.0121 34.5773 35.404 35.2277 34.8409C35.9173 34.2366 36.5379 33.6917 37.0075 33.2653C37.2456 33.0352 37.5637 32.9065 37.8949 32.9065C38.226 32.9065 38.5442 33.0352 38.7822 33.2653C38.8934 33.3765 38.9798 33.51 39.0358 33.657C39.0917 33.8039 39.116 33.9611 39.1069 34.1181C39.0828 34.4668 38.9525 34.7998 38.7336 35.0723ZM29.1892 27.0626C29.1892 26.7338 29.0917 26.4124 28.909 26.139C28.7263 25.8656 28.4667 25.6525 28.1629 25.5267C27.8591 25.4008 27.5248 25.3679 27.2023 25.4321C26.8799 25.4962 26.5836 25.6545 26.3511 25.887C26.1186 26.1195 25.9603 26.4158 25.8961 26.7383C25.832 27.0608 25.8649 27.395 25.9907 27.6988C26.1166 28.0026 26.3297 28.2622 26.603 28.4449C26.8764 28.6276 27.1979 28.7251 27.5267 28.7251C27.9675 28.7246 28.3901 28.5493 28.7017 28.2377C29.0134 27.926 29.1887 27.5034 29.1892 27.0626ZM26.6954 27.0626C26.6954 26.8982 26.7442 26.7375 26.8355 26.6008C26.9269 26.4641 27.0567 26.3575 27.2086 26.2946C27.3605 26.2317 27.5276 26.2153 27.6889 26.2473C27.8501 26.2794 27.9982 26.3586 28.1145 26.4748C28.2307 26.5911 28.3099 26.7392 28.342 26.9004C28.374 27.0617 28.3576 27.2288 28.2947 27.3807C28.2317 27.5326 28.1252 27.6624 27.9885 27.7538C27.8518 27.8451 27.6911 27.8939 27.5267 27.8939C27.3063 27.8936 27.095 27.8059 26.9392 27.6501C26.7833 27.4943 26.6957 27.283 26.6954 27.0626ZM27.9423 31.2189V33.297C27.9423 33.4072 27.9861 33.5129 28.064 33.5909C28.142 33.6688 28.2477 33.7126 28.3579 33.7126H32.5142C32.6244 33.7126 32.7301 33.6688 32.8081 33.5909C32.886 33.5129 32.9298 33.4072 32.9298 33.297V31.2189C32.9298 31.1086 32.886 31.0029 32.8081 30.925C32.7301 30.847 32.6244 30.8032 32.5142 30.8032H28.3579C28.2477 30.8032 28.142 30.847 28.064 30.925C27.9861 31.0029 27.9423 31.1086 27.9423 31.2189ZM28.7736 31.6345H32.0986V32.8814H28.7736V31.6345Z" fill="#8C7158"/>
</svg>
