<svg width="156" height="107" viewBox="0 0 156 107" fill="none" xmlns="http://www.w3.org/2000/svg">
<path d="M75.5005 74.5C8.70047 97.3 8.66714 72.6667 17.0005 57.5C-4.99915 72.3 6.50032 87.3333 15 93C10.6 100.2 3.16667 100.667 0 100V106.5H37.5V101.5C29.5 100.7 25.1667 95.5 24 93C42.8 96.2 66.167 88.3333 75.5005 84C78.3008 85.6 79.667 94 80 98L65 101.5V106.5H155.5V64.5H149.5C145.9 88.9 135.667 97.6667 131 99H100.5C91.3 86.6 90.6667 78.8333 91.5 76.5C93.9 73.7 97.1667 82.3333 98.5 87V71.5C152.5 36.3 132.333 21.8333 115.5 19C144.3 37 100.834 63.5 75.5005 74.5Z" fill="#F2F2F2"/>
<path fill-rule="evenodd" clip-rule="evenodd" d="M21.5 78L54.5 0H58.5L85.5 67L73 72L72 69H32L27 81L21.5 78ZM65 0H112.5V5.5H101V56.5L97.5 61V5.5H94.5L95 63.5L90.5 65.5L91 5.5H88V65.5L85 60V5.5H82V50.5L79 42.5V5.5H65V0ZM34 64H69.5L52 20L34 64Z" fill="#F2F2F2"/>
</svg>
