<svg width="32" height="32" viewBox="0 0 32 32" fill="none" xmlns="http://www.w3.org/2000/svg">
<path d="M18.1214 16.0006L24.0589 10.0631C24.3407 9.78185 24.4992 9.40014 24.4996 9.00197C24.4999 8.60381 24.3421 8.22182 24.0608 7.94002C23.7795 7.65823 23.3978 7.49972 22.9996 7.49937C22.6014 7.49902 22.2195 7.65685 21.9377 7.93815L16.0002 13.8756L10.0627 7.93815C9.78087 7.65636 9.39868 7.49805 9.00016 7.49805C8.60165 7.49805 8.21945 7.65636 7.93766 7.93815C7.65587 8.21994 7.49756 8.60213 7.49756 9.00065C7.49756 9.39916 7.65587 9.78136 7.93766 10.0631L13.8752 16.0006L7.93766 21.9381C7.65587 22.2199 7.49756 22.6021 7.49756 23.0006C7.49756 23.3992 7.65587 23.7814 7.93766 24.0631C8.21945 24.3449 8.60165 24.5033 9.00016 24.5033C9.39868 24.5033 9.78087 24.3449 10.0627 24.0631L16.0002 18.1256L21.9377 24.0631C22.2195 24.3449 22.6016 24.5033 23.0002 24.5033C23.3987 24.5033 23.7809 24.3449 24.0627 24.0631C24.3445 23.7814 24.5028 23.3992 24.5028 23.0006C24.5028 22.6021 24.3445 22.2199 24.0627 21.9381L18.1214 16.0006Z" fill="white"/>
</svg>
