<svg width="179" height="65" viewBox="0 0 179 65" fill="none" xmlns="http://www.w3.org/2000/svg">
<path d="M88.7772 23.6076C67.3084 30.8329 67.2977 23.0266 69.976 18.2202C62.9055 22.9104 66.6013 27.6745 69.333 29.4702C67.9189 31.7519 65.5299 31.8998 64.5122 31.6885V33.7484H76.5643V32.1639C73.9932 31.9104 72.6005 30.2625 72.2255 29.4702C78.2676 30.4843 85.7775 27.9914 88.7772 26.6181C89.6772 27.1252 90.1163 29.7871 90.2233 31.0547L85.4025 32.1639V33.7484H114.488V20.4385H112.56C111.403 28.1709 108.114 30.9491 106.614 31.3716H96.8118C93.855 27.4421 93.6515 24.9808 93.9193 24.2414C94.6906 23.354 95.7405 26.09 96.169 27.5688V22.6569C113.524 11.5019 107.043 6.91742 101.633 6.01953C110.889 11.7238 96.919 20.1216 88.7772 23.6076Z" fill="#8C7158"/>
<path fill-rule="evenodd" clip-rule="evenodd" d="M71.4229 24.7183L82.0287 0H83.3142L91.9917 21.2324L87.9744 22.8169L87.653 21.8662H74.7974L73.1905 25.669L71.4229 24.7183ZM85.4033 0H100.669V1.74296H96.9733V17.9049L95.8484 19.331V1.74296H94.8842L95.0449 20.1232L93.5987 20.757L93.7594 1.74296H92.7952V20.757L91.831 19.0141V1.74296H90.8669V16.0035L89.9027 13.4683V1.74296H85.4033V0ZM75.4399 20.2816H86.8492L81.2249 6.33789L75.4399 20.2816Z" fill="#8C7158"/>
<path d="M0 57.82V57.316L0.336 57.244C0.624 57.18 0.856 57.1 1.032 57.004C1.224 56.908 1.4 56.748 1.56 56.524C1.72 56.3 1.888 55.972 2.064 55.54L5.688 46.828H6.6L9.96 54.916C10.248 55.604 10.496 56.124 10.704 56.476C10.912 56.828 11.216 57.052 11.616 57.148L12.336 57.316V57.82L9.84 57.748L7.032 57.82V57.316L7.944 57.148C8.088 57.116 8.216 57.06 8.328 56.98C8.44 56.884 8.496 56.732 8.496 56.524C8.496 56.348 8.448 56.132 8.352 55.876L7.632 54.052H3.36L2.784 55.492C2.672 55.796 2.576 56.052 2.496 56.26C2.432 56.468 2.4 56.636 2.4 56.764C2.4 56.924 2.448 57.036 2.544 57.1C2.64 57.164 2.768 57.212 2.928 57.244L3.552 57.316V57.82L1.752 57.748L0 57.82ZM5.544 48.652L3.6 53.452H7.416L5.544 48.652ZM14.1491 57.82V57.268L14.5331 57.22C14.9971 57.156 15.3571 57.084 15.6131 57.004C15.8691 56.908 16.0451 56.708 16.1411 56.404C16.2371 56.084 16.2851 55.564 16.2851 54.844V49.732C16.2851 49.012 16.2371 48.5 16.1411 48.196C16.0451 47.876 15.8691 47.668 15.6131 47.572C15.3731 47.476 15.0211 47.404 14.5571 47.356L14.1731 47.308V46.756L17.1251 46.828H19.8131C20.2611 46.828 20.7331 46.86 21.2291 46.924C21.7411 46.972 22.2131 47.084 22.6451 47.26C23.0931 47.42 23.4531 47.66 23.7251 47.98C23.9971 48.3 24.1331 48.716 24.1331 49.228C24.1331 49.756 23.9971 50.196 23.7251 50.548C23.4691 50.9 23.1331 51.18 22.7171 51.388C22.3171 51.58 21.9011 51.724 21.4691 51.82C22.0291 51.884 22.5651 52.012 23.0771 52.204C23.5891 52.38 24.0051 52.66 24.3251 53.044C24.6611 53.428 24.8291 53.948 24.8291 54.604C24.8291 55.212 24.6931 55.716 24.4211 56.116C24.1651 56.516 23.8371 56.836 23.4371 57.076C23.0531 57.316 22.6531 57.492 22.2371 57.604C21.8371 57.7 21.4931 57.748 21.2051 57.748H17.1011L14.1491 57.82ZM19.3331 47.404H17.8931V51.676H20.2691C20.9251 51.676 21.4211 51.476 21.7571 51.076C22.1091 50.676 22.2851 50.108 22.2851 49.372C22.2851 48.636 22.0451 48.124 21.5651 47.836C21.1011 47.548 20.3571 47.404 19.3331 47.404ZM19.4531 57.172H20.3651C22.1091 57.172 22.9811 56.316 22.9811 54.604C22.9811 53.868 22.8291 53.34 22.5251 53.02C22.2211 52.684 21.8131 52.476 21.3011 52.396C20.8051 52.3 20.2691 52.252 19.6931 52.252H17.8931V55.444C17.8931 56.036 18.0291 56.476 18.3011 56.764C18.5891 57.036 18.9731 57.172 19.4531 57.172ZM31.7319 58.012C31.2999 58.012 30.9079 57.956 30.5559 57.844C30.2199 57.732 29.9319 57.612 29.6919 57.484C29.4519 57.356 29.2599 57.26 29.1159 57.196C28.9879 57.132 28.8599 57.1 28.7319 57.1C28.5559 57.1 28.4359 57.164 28.3719 57.292C28.3079 57.42 28.2679 57.58 28.2519 57.772H27.7479L27.8199 56.068L27.7239 53.716H28.2759C28.3719 54.74 28.7159 55.604 29.3079 56.308C29.9159 56.996 30.6839 57.34 31.6119 57.34C32.2039 57.34 32.7079 57.164 33.1239 56.812C33.5399 56.46 33.7479 55.988 33.7479 55.396C33.7479 54.724 33.5559 54.212 33.1719 53.86C32.7879 53.508 32.3159 53.212 31.7559 52.972L30.4599 52.42C29.7559 52.116 29.1959 51.716 28.7799 51.22C28.3799 50.724 28.1799 50.124 28.1799 49.42C28.1799 48.524 28.4919 47.812 29.1159 47.284C29.7559 46.756 30.5479 46.492 31.4919 46.492C31.8279 46.492 32.1319 46.532 32.4039 46.612C32.6759 46.692 32.9159 46.772 33.1239 46.852C33.5879 47.044 33.8919 47.14 34.0359 47.14C34.1319 47.14 34.2039 47.1 34.2519 47.02C34.2999 46.94 34.3319 46.788 34.3479 46.564H34.8759L34.8279 48.052L34.8519 49.9H34.3479C34.2039 49.052 33.8839 48.388 33.3879 47.908C32.9079 47.412 32.3239 47.164 31.6359 47.164C30.9959 47.164 30.5159 47.348 30.1959 47.716C29.8759 48.084 29.7159 48.476 29.7159 48.892C29.7159 49.324 29.8199 49.684 30.0279 49.972C30.2519 50.244 30.5159 50.468 30.8199 50.644C31.1239 50.804 31.4039 50.948 31.6599 51.076L32.7879 51.58C33.7159 51.98 34.3639 52.468 34.7319 53.044C35.0999 53.604 35.2839 54.212 35.2839 54.868C35.2839 55.412 35.1399 55.924 34.8519 56.404C34.5639 56.884 34.1559 57.276 33.6279 57.58C33.0999 57.868 32.4679 58.012 31.7319 58.012ZM44.5851 58.012C43.8011 58.012 43.0411 57.876 42.3051 57.604C41.5691 57.316 40.9051 56.916 40.3131 56.404C39.7371 55.892 39.2731 55.284 38.9211 54.58C38.5851 53.876 38.4171 53.108 38.4171 52.276C38.4171 51.38 38.5931 50.58 38.9451 49.876C39.2971 49.172 39.7691 48.564 40.3611 48.052C40.9691 47.54 41.6331 47.156 42.3531 46.9C43.0891 46.628 43.8331 46.492 44.5851 46.492C45.2891 46.492 46.0011 46.62 46.7211 46.876C47.4411 47.116 48.0971 47.484 48.6891 47.98C49.2971 48.476 49.7771 49.084 50.1291 49.804C50.4971 50.508 50.6811 51.332 50.6811 52.276C50.6811 53.108 50.5051 53.876 50.1531 54.58C49.8011 55.268 49.3291 55.868 48.7371 56.38C48.1611 56.892 47.5131 57.292 46.7931 57.58C46.0731 57.868 45.3371 58.012 44.5851 58.012ZM44.5851 57.292C45.5771 57.292 46.3771 57.068 46.9851 56.62C47.5931 56.156 48.0411 55.548 48.3291 54.796C48.6171 54.028 48.7611 53.188 48.7611 52.276C48.7611 50.756 48.4331 49.532 47.7771 48.604C47.1371 47.676 46.0731 47.212 44.5851 47.212C43.5291 47.212 42.6891 47.444 42.0651 47.908C41.4411 48.356 40.9931 48.964 40.7211 49.732C40.4651 50.484 40.3371 51.332 40.3371 52.276C40.3371 53.204 40.4891 54.052 40.7931 54.82C41.1131 55.572 41.5851 56.172 42.2091 56.62C42.8331 57.068 43.6251 57.292 44.5851 57.292ZM53.6413 57.82V57.268L54.0253 57.22C54.4893 57.156 54.8413 57.084 55.0813 57.004C55.3373 56.908 55.5133 56.708 55.6093 56.404C55.7053 56.084 55.7533 55.564 55.7533 54.844V49.732C55.7533 49.012 55.7053 48.5 55.6093 48.196C55.5133 47.876 55.3373 47.668 55.0813 47.572C54.8413 47.476 54.4893 47.404 54.0253 47.356L53.6413 47.308V46.756L56.5933 46.828L59.5453 46.756V47.308L59.1613 47.356C58.6973 47.404 58.3373 47.476 58.0813 47.572C57.8413 47.668 57.6733 47.876 57.5773 48.196C57.4813 48.5 57.4333 49.012 57.4333 49.732V54.892C57.4333 55.596 57.5133 56.148 57.6733 56.548C57.8493 56.948 58.2733 57.148 58.9453 57.148H60.2653C61.2093 57.148 61.8893 56.868 62.3053 56.308C62.7373 55.732 63.0013 54.908 63.0973 53.836H63.6493L63.4813 57.796L56.5933 57.748L53.6413 57.82ZM71.6799 57.988C70.7999 57.988 69.9999 57.852 69.2799 57.58C68.5759 57.292 68.0159 56.836 67.5999 56.212C67.1839 55.588 66.9759 54.78 66.9759 53.788V49.732C66.9759 49.012 66.9279 48.5 66.8319 48.196C66.7359 47.876 66.5599 47.668 66.3039 47.572C66.0639 47.476 65.7119 47.404 65.2479 47.356L64.8639 47.308V46.756L67.8159 46.828L70.7679 46.756V47.308L70.3839 47.356C69.9199 47.404 69.5599 47.476 69.3039 47.572C69.0639 47.668 68.8959 47.876 68.7999 48.196C68.7039 48.5 68.6559 49.012 68.6559 49.732V53.788C68.6559 54.892 68.9439 55.748 69.5199 56.356C70.1119 56.964 70.9199 57.268 71.9439 57.268C72.8719 57.268 73.6239 56.988 74.1999 56.428C74.7759 55.868 75.0639 54.964 75.0639 53.716V49.756C75.0639 49.036 75.0159 48.524 74.9199 48.22C74.8239 47.9 74.6479 47.692 74.3919 47.596C74.1519 47.5 73.7999 47.428 73.3359 47.38L72.9519 47.332V46.78L75.3759 46.828L77.7999 46.78V47.332L77.4159 47.38C76.9519 47.428 76.5919 47.5 76.3359 47.596C76.0959 47.692 75.9279 47.9 75.8319 48.22C75.7359 48.524 75.6879 49.036 75.6879 49.756V53.716C75.6879 55.14 75.3199 56.212 74.5839 56.932C73.8639 57.636 72.8959 57.988 71.6799 57.988ZM81.8918 57.82V57.268L82.2998 57.22C82.7958 57.156 83.1718 57.084 83.4278 57.004C83.6838 56.908 83.8598 56.708 83.9558 56.404C84.0518 56.084 84.0998 55.564 84.0998 54.844V47.404H82.1558C81.6758 47.404 81.2838 47.516 80.9798 47.74C80.6918 47.948 80.4358 48.292 80.2118 48.772C79.9878 49.236 79.7238 49.852 79.4198 50.62L78.9158 50.524L79.3478 48.364L79.5398 46.78L84.9638 46.828L90.5798 46.78L90.7718 48.364L91.2278 50.524L90.6998 50.644C90.4918 49.876 90.2758 49.252 90.0518 48.772C89.8438 48.292 89.5798 47.948 89.2598 47.74C88.9398 47.516 88.5078 47.404 87.9638 47.404H85.8278V54.844C85.8278 55.564 85.8838 56.084 85.9958 56.404C86.1078 56.708 86.2998 56.908 86.5718 57.004C86.8438 57.084 87.2198 57.156 87.6998 57.22L88.1078 57.268V57.82L85.0117 57.748L81.8918 57.82ZM93.1101 57.82V57.268L93.4941 57.22C93.9581 57.156 94.3101 57.084 94.5501 57.004C94.8061 56.908 94.9821 56.708 95.0781 56.404C95.1741 56.084 95.2221 55.564 95.2221 54.844V49.732C95.2221 49.012 95.1741 48.5 95.0781 48.196C94.9981 47.876 94.8301 47.668 94.5741 47.572C94.3341 47.476 93.9821 47.404 93.5181 47.356L93.1341 47.308V46.756L96.0861 46.828H102.398V47.884L102.542 49.516H102.038C101.878 49.02 101.71 48.62 101.534 48.316C101.374 48.012 101.118 47.788 100.766 47.644C100.414 47.5 99.8701 47.428 99.1341 47.428H96.9021V51.844H98.8941C99.1661 51.844 99.3981 51.716 99.5901 51.46C99.7821 51.188 99.8941 50.676 99.9261 49.924H100.43L100.358 52.132L100.43 54.532H99.9261C99.9261 53.748 99.8301 53.196 99.6381 52.876C99.4461 52.556 99.1741 52.396 98.8221 52.396H96.9021V55.876C96.9021 56.276 97.0061 56.588 97.2141 56.812C97.4381 57.036 97.8621 57.148 98.4861 57.148H100.07C100.694 57.148 101.158 57.036 101.462 56.812C101.782 56.588 102.014 56.26 102.158 55.828C102.318 55.396 102.462 54.884 102.59 54.292H103.094L102.926 56.236V57.748H96.0621L93.1101 57.82ZM113.266 57.82V57.268L113.65 57.22C114.114 57.156 114.466 57.084 114.706 57.004C114.962 56.908 115.138 56.708 115.234 56.404C115.33 56.084 115.378 55.564 115.378 54.844V49.732C115.378 49.012 115.33 48.5 115.234 48.196C115.138 47.876 114.962 47.668 114.706 47.572C114.466 47.476 114.114 47.404 113.65 47.356L113.266 47.308V46.756L116.218 46.828L119.17 46.756V47.308L118.786 47.356C118.322 47.404 117.962 47.476 117.706 47.572C117.466 47.668 117.298 47.876 117.202 48.196C117.106 48.5 117.058 49.012 117.058 49.732V54.892C117.058 55.596 117.138 56.148 117.298 56.548C117.474 56.948 117.898 57.148 118.57 57.148H119.89C120.834 57.148 121.514 56.868 121.93 56.308C122.362 55.732 122.626 54.908 122.722 53.836H123.274L123.106 57.796L116.218 57.748L113.266 57.82ZM125.735 57.82V57.268L126.119 57.22C126.583 57.156 126.935 57.084 127.175 57.004C127.431 56.908 127.607 56.708 127.703 56.404C127.799 56.084 127.847 55.564 127.847 54.844V49.732C127.847 49.012 127.799 48.5 127.703 48.196C127.623 47.876 127.455 47.668 127.199 47.572C126.959 47.476 126.607 47.404 126.143 47.356L125.759 47.308V46.756L128.711 46.828H135.023V47.884L135.167 49.516H134.663C134.503 49.02 134.335 48.62 134.159 48.316C133.999 48.012 133.743 47.788 133.391 47.644C133.039 47.5 132.495 47.428 131.759 47.428H129.527V51.844H131.519C131.791 51.844 132.023 51.716 132.215 51.46C132.407 51.188 132.519 50.676 132.551 49.924H133.055L132.983 52.132L133.055 54.532H132.551C132.551 53.748 132.455 53.196 132.263 52.876C132.071 52.556 131.799 52.396 131.447 52.396H129.527V55.876C129.527 56.276 129.631 56.588 129.839 56.812C130.063 57.036 130.487 57.148 131.111 57.148H132.695C133.319 57.148 133.783 57.036 134.087 56.812C134.407 56.588 134.639 56.26 134.783 55.828C134.943 55.396 135.087 54.884 135.215 54.292H135.719L135.551 56.236V57.748H128.687L125.735 57.82ZM144.126 58.012C142.974 58.012 142.006 57.772 141.222 57.292C140.438 56.796 139.846 56.132 139.446 55.3C139.062 54.468 138.87 53.54 138.87 52.516C138.87 51.3 139.11 50.244 139.59 49.348C140.086 48.452 140.742 47.756 141.558 47.26C142.39 46.748 143.31 46.492 144.318 46.492C144.942 46.492 145.478 46.58 145.926 46.756C146.374 46.916 146.686 47.044 146.862 47.14C147.086 47.252 147.238 47.324 147.318 47.356C147.414 47.388 147.502 47.404 147.582 47.404C147.678 47.404 147.758 47.356 147.822 47.26C147.886 47.148 147.934 46.964 147.966 46.708H148.47L148.398 48.556L148.47 50.428H147.966C147.774 49.388 147.366 48.596 146.742 48.052C146.118 47.492 145.358 47.212 144.462 47.212C143.63 47.212 142.942 47.444 142.398 47.908C141.854 48.356 141.446 48.98 141.174 49.78C140.918 50.58 140.79 51.492 140.79 52.516C140.79 53.38 140.902 54.172 141.126 54.892C141.366 55.612 141.758 56.196 142.302 56.644C142.846 57.076 143.582 57.292 144.51 57.292C144.974 57.292 145.43 57.212 145.878 57.052C146.342 56.892 146.718 56.684 147.006 56.428C147.31 56.156 147.462 55.884 147.462 55.612V54.748C147.462 54.428 147.374 54.18 147.198 54.004C147.038 53.828 146.726 53.724 146.262 53.692L145.59 53.644V53.116L148.182 53.188L150.582 53.116V53.644L149.862 53.692C149.654 53.708 149.478 53.82 149.334 54.028C149.206 54.22 149.142 54.556 149.142 55.036V55.348C149.142 55.588 149.182 55.82 149.262 56.044C149.342 56.252 149.422 56.428 149.502 56.572L149.646 56.812L149.214 57.076C149.15 56.964 149.03 56.876 148.854 56.812C148.694 56.748 148.526 56.716 148.35 56.716C147.998 56.716 147.622 56.828 147.222 57.052C146.838 57.26 146.374 57.476 145.83 57.7C145.302 57.908 144.734 58.012 144.126 58.012ZM152.227 57.82V57.316L152.563 57.244C152.851 57.18 153.083 57.1 153.259 57.004C153.451 56.908 153.627 56.748 153.787 56.524C153.947 56.3 154.115 55.972 154.291 55.54L157.915 46.828H158.827L162.187 54.916C162.475 55.604 162.723 56.124 162.931 56.476C163.139 56.828 163.443 57.052 163.843 57.148L164.563 57.316V57.82L162.067 57.748L159.259 57.82V57.316L160.171 57.148C160.315 57.116 160.443 57.06 160.555 56.98C160.667 56.884 160.723 56.732 160.723 56.524C160.723 56.348 160.675 56.132 160.579 55.876L159.859 54.052H155.587L155.011 55.492C154.899 55.796 154.803 56.052 154.723 56.26C154.659 56.468 154.627 56.636 154.627 56.764C154.627 56.924 154.675 57.036 154.771 57.1C154.867 57.164 154.995 57.212 155.155 57.244L155.779 57.316V57.82L153.979 57.748L152.227 57.82ZM157.771 48.652L155.827 53.452H159.643L157.771 48.652ZM166.376 57.82V57.268L166.76 57.22C167.224 57.156 167.576 57.084 167.816 57.004C168.072 56.908 168.248 56.708 168.344 56.404C168.44 56.084 168.488 55.564 168.488 54.844V49.732C168.488 49.012 168.44 48.5 168.344 48.196C168.248 47.876 168.072 47.668 167.816 47.572C167.576 47.476 167.224 47.404 166.76 47.356L166.376 47.308V46.756L169.328 46.828L172.28 46.756V47.308L171.896 47.356C171.432 47.404 171.072 47.476 170.816 47.572C170.576 47.668 170.408 47.876 170.312 48.196C170.216 48.5 170.168 49.012 170.168 49.732V54.892C170.168 55.596 170.248 56.148 170.408 56.548C170.584 56.948 171.008 57.148 171.68 57.148H173C173.944 57.148 174.624 56.868 175.04 56.308C175.472 55.732 175.736 54.908 175.832 53.836H176.384L176.216 57.796L169.328 57.748L166.376 57.82Z" fill="#8C7158"/>
</svg>
