<svg width="20" height="14" viewBox="0 0 20 14" fill="none" xmlns="http://www.w3.org/2000/svg">
<path d="M1.99984 0.333984H8.6665C9.02013 0.333984 9.35926 0.47446 9.60931 0.724509C9.85936 0.974557 9.99984 1.3137 9.99984 1.66732C9.99984 2.02094 9.85936 2.36008 9.60931 2.61013C9.35926 2.86018 9.02013 3.00065 8.6665 3.00065H1.99984C1.64622 3.00065 1.30708 2.86018 1.05703 2.61013C0.80698 2.36008 0.666504 2.02094 0.666504 1.66732C0.666504 1.3137 0.80698 0.974557 1.05703 0.724509C1.30708 0.47446 1.64622 0.333984 1.99984 0.333984ZM11.3332 11.0007H17.9998C18.3535 11.0007 18.6926 11.1411 18.9426 11.3912C19.1927 11.6412 19.3332 11.9804 19.3332 12.334C19.3332 12.6876 19.1927 13.0267 18.9426 13.2768C18.6926 13.5268 18.3535 13.6673 17.9998 13.6673H11.3332C10.9795 13.6673 10.6404 13.5268 10.3904 13.2768C10.1403 13.0267 9.99984 12.6876 9.99984 12.334C9.99984 11.9804 10.1403 11.6412 10.3904 11.3912C10.6404 11.1411 10.9795 11.0007 11.3332 11.0007ZM1.99984 5.66732H17.9998C18.3535 5.66732 18.6926 5.80779 18.9426 6.05784C19.1927 6.30789 19.3332 6.64703 19.3332 7.00065C19.3332 7.35427 19.1927 7.69341 18.9426 7.94346C18.6926 8.19351 18.3535 8.33398 17.9998 8.33398H1.99984C1.64622 8.33398 1.30708 8.19351 1.05703 7.94346C0.80698 7.69341 0.666504 7.35427 0.666504 7.00065C0.666504 6.64703 0.80698 6.30789 1.05703 6.05784C1.30708 5.80779 1.64622 5.66732 1.99984 5.66732Z" fill="white"/>
</svg>
