<svg width="110" height="91" viewBox="0 0 110 91" fill="none" xmlns="http://www.w3.org/2000/svg">
<path opacity="0.1" d="M0 61.5007C0.012103 69.1527 1.72805 76.7089 5.02688 83.6367C9.9444 88.1003 16.3775 90.5934 23.0645 90.627C34.3011 90.627 42.8763 83.3454 42.8763 71.1124C42.8763 63.5396 40.2116 56.5493 31.3441 49.559L20.4032 40.8245C26.9086 27.7177 36.6667 18.3973 48.4946 9.95073L43.1686 0.63034C18.629 13.4459 0 35.8731 0 61.5007ZM61.5054 61.5007C61.5175 69.1527 63.2334 76.7089 66.5323 83.6367C71.4498 88.1003 77.8829 90.5934 84.5699 90.627C95.8064 90.627 104.382 83.3454 104.382 71.1124C104.382 63.5396 101.717 56.5493 92.8495 49.559L81.9086 40.8211C88.414 27.7143 98.172 18.3939 110 9.94734L104.677 0.626953C80.131 13.4459 61.5054 35.8731 61.5054 61.5007Z" fill="#242424"/>
</svg>
